<?xml version="1.0" encoding="utf-8"?>
<!-- Generator: Adobe Illustrator 16.0.0, SVG Export Plug-In . SVG Version: 6.00 Build 0)  -->
<!DOCTYPE svg PUBLIC "-//W3C//DTD SVG 1.1//EN" "http://www.w3.org/Graphics/SVG/1.1/DTD/svg11.dtd">
<svg version="1.1" id="question_icon" xmlns="http://www.w3.org/2000/svg" xmlns:xlink="http://www.w3.org/1999/xlink" x="0px" y="0px"
	 width="105.1px" height="110.3px" viewBox="0 0 105.1 110.3" fill="white" enable-background="new 0 0 105.1 110.3" xml:space="preserve">
<path fill="#FFFFFF" d="M96.1,74.2L92.9,71c3-6.3,4.6-13.2,4.6-20.1c0-25.7-20.9-46.6-46.6-46.6S4.3,25.2,4.3,50.9
	s20.9,46.6,46.6,46.6c4.1,0,8.1-0.5,12.1-1.6l3.4,3.4c-5,1.6-10.2,2.4-15.5,2.4C22.8,101.8,0,78.9,0,50.9S22.8,0,50.9,0
	s50.9,22.8,50.9,50.9C101.8,59.1,99.8,67,96.1,74.2z"/>
<g>
	<path fill="#FFFFFF" d="M102.6,110.3c-0.6,0-1.3-0.2-1.8-0.7L65.9,74.7c-1-1-1-2.6,0-3.5c1-1,2.6-1,3.5,0l34.9,34.9
		c1,1,1,2.6,0,3.5C103.8,110.1,103.2,110.3,102.6,110.3z"/>
</g>
<circle fill="#FFFFFF" cx="53" cy="59.8" r="4.5"/>
<g>
</g>
<g>
</g>
<g>
</g>
<g>
</g>
<g>
</g>
<g>
</g>
</svg>
