<?xml version="1.0" encoding="iso-8859-1"?>
<!-- Generator: Adobe Illustrator 19.0.0, SVG Export Plug-In . SVG Version: 6.00 Build 0)  -->
<svg version="1.1" id="Capa_1" xmlns="http://www.w3.org/2000/svg" xmlns:xlink="http://www.w3.org/1999/xlink" x="0px" y="0px"
	 viewBox="0 0 368 368" style="enable-background:new 0 0 368 368;" xml:space="preserve">
<g>
	<g>
		<path d="M280,0H88C74.768,0,64,10.768,64,24v336c0,3,1.672,5.744,4.336,7.112c2.664,1.368,5.872,1.136,8.312-0.6L184,289.832
			l107.352,76.68C292.736,367.496,294.36,368,296,368c1.248,0,2.504-0.296,3.664-0.888C302.328,365.744,304,363,304,360V24
			C304,10.768,293.232,0,280,0z M288,344.456l-99.352-70.968C187.256,272.496,185.632,272,184,272c-1.632,0-3.256,0.496-4.648,1.488
			L80,344.456V80h208V344.456z M288,64H80V24c0-4.408,3.592-8,8-8h192c4.416,0,8,3.592,8,8V64z"/>
	</g>
</g>
<g>
</g>
<g>
</g>
<g>
</g>
<g>
</g>
<g>
</g>
<g>
</g>
<g>
</g>
<g>
</g>
<g>
</g>
<g>
</g>
<g>
</g>
<g>
</g>
<g>
</g>
<g>
</g>
<g>
</g>
</svg>
